<?xml version="1.0" encoding="iso-8859-1"?>
<!-- Uploaded to: SVG Repo, www.svgrepo.com, Generator: SVG Repo Mixer Tools -->
<!DOCTYPE svg PUBLIC "-//W3C//DTD SVG 1.1//EN" "http://www.w3.org/Graphics/SVG/1.1/DTD/svg11.dtd">
<svg fill="#000000" version="1.1" id="Capa_1" xmlns="http://www.w3.org/2000/svg" xmlns:xlink="http://www.w3.org/1999/xlink" 
	 width="800px" height="800px" viewBox="0 0 510 510.001" xml:space="preserve"
	>
<g>
	<g>
		<path d="M48.52,510.001h412.961c17.91,0,32.434-14.52,32.434-32.433V319.733c0-17.91-14.52-32.433-32.434-32.433h-87.527
			c-5.07,0-12.084,2.913-15.889,6.267c-27.518,24.241-63.57,38.951-103.063,38.951c-39.492,0-75.545-14.71-103.064-38.951
			c-3.803-3.351-10.82-6.267-15.887-6.267H48.52c-17.91,0-32.433,14.52-32.433,32.433v157.835
			C16.086,495.481,30.606,510.001,48.52,510.001z"/>
		<path d="M118.511,215.1c21.585,58.023,74.539,99.059,136.488,99.059c61.949,0,114.904-41.035,136.488-99.059
			c19.74-1.224,35.383-17.573,35.383-37.62c0-16.628-10.768-30.713-25.697-35.744C393.959,62.186,331.276,0,254.999,0
			S116.038,62.186,108.826,141.736c-14.93,5.031-25.698,19.116-25.698,35.744C83.128,197.526,98.771,213.879,118.511,215.1z"/>
	</g>
</g>
</svg>