<?xml version="1.0" encoding="UTF-8"?>
<svg xmlns="http://www.w3.org/2000/svg" id="Layer_1" data-name="Layer 1" viewBox="0 0 24 24">
  <path d="M12,7c1.103,0,2-.897,2-2s-.897-2-2-2-2,.897-2,2,.897,2,2,2Zm0-3c.552,0,1,.449,1,1s-.448,1-1,1-1-.449-1-1,.448-1,1-1Zm6.5,8c-.842,0-1.638,.196-2.352,.536l-.935-1.582c1.382-1,2.287-2.622,2.287-4.454,0-3.033-2.468-5.5-5.5-5.5S6.5,3.467,6.5,6.5c0,1.833,.905,3.454,2.287,4.454l-.935,1.582c-.714-.34-1.51-.536-2.352-.536-3.032,0-5.5,2.467-5.5,5.5s2.468,5.5,5.5,5.5c2.863,0,5.221-2.201,5.475-5h2.051c.254,2.799,2.611,5,5.475,5,3.032,0,5.5-2.467,5.5-5.5s-2.468-5.5-5.5-5.5ZM7.5,6.5c0-2.481,2.019-4.5,4.5-4.5s4.5,2.019,4.5,4.5c0,1.412-.666,2.658-1.687,3.484-.419-1.166-1.522-1.984-2.813-1.984s-2.396,.818-2.813,1.984c-1.02-.826-1.687-2.072-1.687-3.484Zm6.44,4.043c-.59,.284-1.243,.457-1.94,.457s-1.351-.173-1.94-.458c.209-.893,.998-1.542,1.94-1.542s1.731,.649,1.94,1.543Zm-4.292,.921c.714,.34,1.51,.536,2.352,.536s1.638-.196,2.352-.536l.935,1.582c-1.255,.908-2.114,2.328-2.262,3.954h-2.051c-.147-1.626-1.007-3.047-2.262-3.954l.935-1.582ZM3.56,21.542c.209-.893,.998-1.542,1.94-1.542s1.731,.649,1.94,1.543c-.59,.284-1.243,.457-1.94,.457s-1.351-.173-1.94-.458Zm4.754-.559c-.419-1.166-1.522-1.984-2.813-1.984s-2.396,.818-2.813,1.984c-1.02-.826-1.687-2.072-1.687-3.484,0-2.481,2.019-4.5,4.5-4.5,2.428,.02,4.502,1.999,4.5,4.5,0,1.412-.666,2.658-1.687,3.484Zm8.246,.559c.209-.893,.998-1.542,1.94-1.542s1.731,.649,1.94,1.543c-.59,.284-1.243,.457-1.94,.457s-1.351-.173-1.94-.458Zm4.754-.559c-.419-1.166-1.522-1.984-2.813-1.984s-2.396,.818-2.813,1.984c-1.02-.826-1.687-2.072-1.687-3.484,0-2.481,2.019-4.5,4.5-4.5s4.5,2.019,4.5,4.5c0,1.412-.666,2.658-1.687,3.484Zm-2.813-6.984c-1.103,0-2,.897-2,2s.897,2,2,2,2-.897,2-2-.897-2-2-2Zm0,3c-.552,0-1-.449-1-1s.448-1,1-1,1,.449,1,1-.448,1-1,1Zm-13-3c-1.103,0-2,.897-2,2s.897,2,2,2,2-.897,2-2-.897-2-2-2Zm0,3c-.552,0-1-.449-1-1s.448-1,1-1,1,.449,1,1-.448,1-1,1Z"/>
</svg>
